<?xml version="1.0" standalone="no"?>
<!DOCTYPE svg PUBLIC "-//W3C//DTD SVG 20010904//EN"
 "http://www.w3.org/TR/2001/REC-SVG-20010904/DTD/svg10.dtd">
<svg version="1.0" xmlns="http://www.w3.org/2000/svg"
 width="199.000000pt" height="199.000000pt" viewBox="0 0 199.000000 199.000000"
 preserveAspectRatio="xMidYMid meet">
<metadata>
Created by potrace 1.11, written by Peter Selinger 2001-2013
</metadata>
<g transform="translate(0.000000,199.000000) scale(0.100000,-0.100000)"
fill="#000000" stroke="none">
<path d="M145 1976 c-132 -60 -140 -236 -14 -302 39 -20 62 -22 304 -30 335
-10 669 -21 880 -29 449 -17 482 -17 520 -1 116 49 140 199 46 279 -46 39 -84
45 -311 52 -417 13 -468 14 -615 20 -667 24 -777 26 -810 11z"/>
<path d="M565 1385 c-326 -72 -556 -355 -555 -683 0 -37 5 -85 10 -107 5 -22
11 -51 14 -65 6 -32 13 -54 38 -110 78 -174 237 -315 425 -378 68 -22 95 -26
208 -26 114 0 139 3 206 27 l76 26 79 -25 c144 -46 277 -49 414 -8 232 69 414
257 477 494 27 99 24 274 -6 365 -55 168 -137 282 -271 376 -129 90 -265 131
-415 124 -103 -4 -124 -8 -207 -36 l-60 -21 -81 27 c-97 33 -254 42 -352 20z
m188 -229 c-4 -6 -21 -31 -39 -56 -139 -197 -163 -463 -60 -685 31 -67 78
-140 100 -156 31 -23 -90 -24 -169 -1 -215 61 -350 250 -340 475 9 202 161
381 359 421 80 17 158 18 149 2z m685 -18 c152 -56 262 -181 296 -334 18 -84
19 -124 1 -199 -49 -211 -225 -358 -437 -364 -38 -1 -68 0 -68 3 0 3 16 27 37
53 48 64 88 151 113 248 48 188 -1 426 -121 577 -19 24 -25 38 -16 41 27 10
141 -5 195 -25z m-389 -125 c164 -188 154 -470 -22 -641 l-34 -33 -50 55
c-131 148 -158 338 -73 513 32 65 104 153 125 153 7 0 31 -21 54 -47z"/>
</g>
</svg>
